<svg xmlns="http://www.w3.org/2000/svg" width="772.507" height="516.24" viewBox="0 0 772.507 516.24">
    <defs>
        <linearGradient id="a" x1="0" x2="1" y1="0" y2="0" gradientTransform="rotate(-146.015 1641.83 800.53)scale(825.216 -825.216)" gradientUnits="userSpaceOnUse" spreadMethod="pad">
            <stop offset="0" style="stop-opacity:1;stop-color:#60a5fa"/>
            <stop offset=".385" style="stop-opacity:1;stop-color:#60a5fa"/>
            <stop offset="1" style="stop-opacity:1;stop-color:#2563eb"/>
        </linearGradient>
        <linearGradient id="c" x1="0" x2="1" y1="0" y2="0" gradientTransform="rotate(-146.015 1648.367 779.146)scale(825.216 -825.216)" gradientUnits="userSpaceOnUse" spreadMethod="pad">
            <stop offset="0" style="stop-opacity:1;stop-color:#60a5fa"/>
            <stop offset=".385" style="stop-opacity:1;stop-color:#60a5fa"/>
            <stop offset="1" style="stop-opacity:1;stop-color:#2563eb"/>
        </linearGradient>
        <linearGradient id="e" x1="0" x2="1" y1="0" y2="0" gradientTransform="rotate(-146.015 1638.144 812.6)scale(825.216 -825.216)" gradientUnits="userSpaceOnUse" spreadMethod="pad">
            <stop offset="0" style="stop-opacity:1;stop-color:#60a5fa"/>
            <stop offset=".385" style="stop-opacity:1;stop-color:#60a5fa"/>
            <stop offset="1" style="stop-opacity:1;stop-color:#2563eb"/>
        </linearGradient>
        <linearGradient id="g" x1="0" x2="1" y1="0" y2="0" gradientTransform="rotate(-146.015 1661.802 735.181)scale(825.216 -825.216)" gradientUnits="userSpaceOnUse" spreadMethod="pad">
            <stop offset="0" style="stop-opacity:1;stop-color:#60a5fa"/>
            <stop offset=".385" style="stop-opacity:1;stop-color:#60a5fa"/>
            <stop offset="1" style="stop-opacity:1;stop-color:#2563eb"/>
        </linearGradient>
        <linearGradient id="i" x1="0" x2="1" y1="0" y2="0" gradientTransform="rotate(-146.015 1680.34 674.513)scale(825.216 -825.216)" gradientUnits="userSpaceOnUse" spreadMethod="pad">
            <stop offset="0" style="stop-opacity:1;stop-color:#60a5fa"/>
            <stop offset=".385" style="stop-opacity:1;stop-color:#60a5fa"/>
            <stop offset="1" style="stop-opacity:1;stop-color:#2563eb"/>
        </linearGradient>
        <linearGradient id="k" x1="0" x2="1" y1="0" y2="0" gradientTransform="rotate(-146.015 1666.74 719.015)scale(825.216 -825.216)" gradientUnits="userSpaceOnUse" spreadMethod="pad">
            <stop offset="0" style="stop-opacity:1;stop-color:#60a5fa"/>
            <stop offset=".385" style="stop-opacity:1;stop-color:#60a5fa"/>
            <stop offset="1" style="stop-opacity:1;stop-color:#2563eb"/>
        </linearGradient>
        <linearGradient id="m" x1="0" x2="1" y1="0" y2="0" gradientTransform="rotate(33.985 -2741.4 5335.472)scale(-825.216 825.216)" gradientUnits="userSpaceOnUse" spreadMethod="pad">
            <stop offset="0" style="stop-opacity:1;stop-color:#60a5fa"/>
            <stop offset=".385" style="stop-opacity:1;stop-color:#60a5fa"/>
            <stop offset="1" style="stop-opacity:1;stop-color:#2563eb"/>
        </linearGradient>
        <linearGradient id="o" x1="0" x2="1" y1="0" y2="0" gradientTransform="rotate(-146.015 1622.824 862.723)scale(825.216 -825.216)" gradientUnits="userSpaceOnUse" spreadMethod="pad">
            <stop offset="0" style="stop-opacity:1;stop-color:#60a5fa"/>
            <stop offset=".385" style="stop-opacity:1;stop-color:#60a5fa"/>
            <stop offset="1" style="stop-opacity:1;stop-color:#2563eb"/>
        </linearGradient>
        <linearGradient id="q" x1="0" x2="1" y1="0" y2="0" gradientTransform="rotate(-146.015 1628.46 844.294)scale(825.216 -825.216)" gradientUnits="userSpaceOnUse" spreadMethod="pad">
            <stop offset="0" style="stop-opacity:1;stop-color:#60a5fa"/>
            <stop offset=".385" style="stop-opacity:1;stop-color:#60a5fa"/>
            <stop offset="1" style="stop-opacity:1;stop-color:#2563eb"/>
        </linearGradient>
        <linearGradient id="s" x1="0" x2="1" y1="0" y2="0" gradientTransform="rotate(-146.015 1672.63 699.754)scale(825.216 -825.216)" gradientUnits="userSpaceOnUse" spreadMethod="pad">
            <stop offset="0" style="stop-opacity:1;stop-color:#60a5fa"/>
            <stop offset=".385" style="stop-opacity:1;stop-color:#60a5fa"/>
            <stop offset="1" style="stop-opacity:1;stop-color:#2563eb"/>
        </linearGradient>
        <linearGradient id="u" x1="0" x2="1" y1="0" y2="0" gradientTransform="rotate(33.985 -2182.1 5506.395)scale(-825.216 825.216)" gradientUnits="userSpaceOnUse" spreadMethod="pad">
            <stop offset="0" style="stop-opacity:1;stop-color:#60a5fa"/>
            <stop offset=".385" style="stop-opacity:1;stop-color:#60a5fa"/>
            <stop offset="1" style="stop-opacity:1;stop-color:#2563eb"/>
        </linearGradient>
        <linearGradient id="w" x1="0" x2="1" y1="0" y2="0" gradientTransform="rotate(-146.015 1691.544 637.85)scale(825.216 -825.216)" gradientUnits="userSpaceOnUse" spreadMethod="pad">
            <stop offset="0" style="stop-opacity:1;stop-color:#60a5fa"/>
            <stop offset=".385" style="stop-opacity:1;stop-color:#60a5fa"/>
            <stop offset="1" style="stop-opacity:1;stop-color:#2563eb"/>
        </linearGradient>
        <linearGradient id="y" x1="0" x2="1" y1="0" y2="0" gradientTransform="rotate(-146.015 1657.307 749.883)scale(825.216 -825.216)" gradientUnits="userSpaceOnUse" spreadMethod="pad">
            <stop offset="0" style="stop-opacity:1;stop-color:#60a5fa"/>
            <stop offset=".385" style="stop-opacity:1;stop-color:#60a5fa"/>
            <stop offset="1" style="stop-opacity:1;stop-color:#2563eb"/>
        </linearGradient>
        <linearGradient id="A" x1="0" x2="1" y1="0" y2="0" gradientTransform="rotate(-146.015 1673.08 698.272)scale(825.216 -825.216)" gradientUnits="userSpaceOnUse" spreadMethod="pad">
            <stop offset="0" style="stop-opacity:1;stop-color:#60a5fa"/>
            <stop offset=".385" style="stop-opacity:1;stop-color:#60a5fa"/>
            <stop offset="1" style="stop-opacity:1;stop-color:#2563eb"/>
        </linearGradient>
        <linearGradient id="C" x1="0" x2="1" y1="0" y2="0" gradientTransform="rotate(-146.015 1658.817 744.95)scale(825.216 -825.216)" gradientUnits="userSpaceOnUse" spreadMethod="pad">
            <stop offset="0" style="stop-opacity:1;stop-color:#60a5fa"/>
            <stop offset=".385" style="stop-opacity:1;stop-color:#60a5fa"/>
            <stop offset="1" style="stop-opacity:1;stop-color:#2563eb"/>
        </linearGradient>
        <linearGradient id="E" x1="0" x2="1" y1="0" y2="0" gradientTransform="rotate(-146.015 1644.02 793.365)scale(825.216 -825.216)" gradientUnits="userSpaceOnUse" spreadMethod="pad">
            <stop offset="0" style="stop-opacity:1;stop-color:#60a5fa"/>
            <stop offset=".385" style="stop-opacity:1;stop-color:#60a5fa"/>
            <stop offset="1" style="stop-opacity:1;stop-color:#2563eb"/>
        </linearGradient>
        <linearGradient id="G" x1="0" x2="1" y1="0" y2="0" gradientTransform="rotate(-146.015 1654.627 758.662)scale(825.216 -825.216)" gradientUnits="userSpaceOnUse" spreadMethod="pad">
            <stop offset="0" style="stop-opacity:1;stop-color:#60a5fa"/>
            <stop offset=".385" style="stop-opacity:1;stop-color:#60a5fa"/>
            <stop offset="1" style="stop-opacity:1;stop-color:#2563eb"/>
        </linearGradient>
        <linearGradient id="I" x1="0" x2="1" y1="0" y2="0" gradientTransform="rotate(-146.015 1639.584 807.885)scale(825.216 -825.216)" gradientUnits="userSpaceOnUse" spreadMethod="pad">
            <stop offset="0" style="stop-opacity:1;stop-color:#60a5fa"/>
            <stop offset=".385" style="stop-opacity:1;stop-color:#60a5fa"/>
            <stop offset="1" style="stop-opacity:1;stop-color:#2563eb"/>
        </linearGradient>
        <linearGradient id="K" x1="0" x2="1" y1="0" y2="0" gradientTransform="rotate(33.985 -2738.36 5336.404)scale(-825.216 825.216)" gradientUnits="userSpaceOnUse" spreadMethod="pad">
            <stop offset="0" style="stop-opacity:1;stop-color:#60a5fa"/>
            <stop offset=".385" style="stop-opacity:1;stop-color:#60a5fa"/>
            <stop offset="1" style="stop-opacity:1;stop-color:#2563eb"/>
        </linearGradient>
        <linearGradient id="M" x1="0" x2="1" y1="0" y2="0" gradientTransform="rotate(-146.015 1629.67 840.327)scale(825.216 -825.216)" gradientUnits="userSpaceOnUse" spreadMethod="pad">
            <stop offset="0" style="stop-opacity:1;stop-color:#60a5fa"/>
            <stop offset=".385" style="stop-opacity:1;stop-color:#60a5fa"/>
            <stop offset="1" style="stop-opacity:1;stop-color:#2563eb"/>
        </linearGradient>
        <linearGradient id="O" x1="0" x2="1" y1="0" y2="0" gradientTransform="rotate(33.985 -2816.144 5312.64)scale(-825.216 825.216)" gradientUnits="userSpaceOnUse" spreadMethod="pad">
            <stop offset="0" style="stop-opacity:1;stop-color:#60a5fa"/>
            <stop offset=".385" style="stop-opacity:1;stop-color:#60a5fa"/>
            <stop offset="1" style="stop-opacity:1;stop-color:#2563eb"/>
        </linearGradient>
        <linearGradient id="Q" x1="0" x2="1" y1="0" y2="0" gradientTransform="rotate(33.985 -2267.6 5480.267)scale(-825.216 825.216)" gradientUnits="userSpaceOnUse" spreadMethod="pad">
            <stop offset="0" style="stop-opacity:1;stop-color:#60a5fa"/>
            <stop offset=".385" style="stop-opacity:1;stop-color:#60a5fa"/>
            <stop offset="1" style="stop-opacity:1;stop-color:#2563eb"/>
        </linearGradient>
        <linearGradient id="S" x1="0" x2="1" y1="0" y2="0" gradientTransform="rotate(-146.015 1692.552 634.547)scale(825.216 -825.216)" gradientUnits="userSpaceOnUse" spreadMethod="pad">
            <stop offset="0" style="stop-opacity:1;stop-color:#60a5fa"/>
            <stop offset=".385" style="stop-opacity:1;stop-color:#60a5fa"/>
            <stop offset="1" style="stop-opacity:1;stop-color:#2563eb"/>
        </linearGradient>
        <linearGradient id="U" x1="0" x2="1" y1="0" y2="0" gradientTransform="rotate(33.985 -2134.29 5520.999)scale(-825.216 825.216)" gradientUnits="userSpaceOnUse" spreadMethod="pad">
            <stop offset="0" style="stop-opacity:1;stop-color:#60a5fa"/>
            <stop offset=".385" style="stop-opacity:1;stop-color:#60a5fa"/>
            <stop offset="1" style="stop-opacity:1;stop-color:#2563eb"/>
        </linearGradient>
        <clipPath id="b" clipPathUnits="userSpaceOnUse">
            <path d="M2273.64 2191.98c-85.94-9.94-111.35-45.9-91.87-60.83 10.33-7.92 34.15-7.42 56.12 7.12 4.51 2.98 18.24 12.08 35.75 53.71"/>
        </clipPath>
        <clipPath id="d" clipPathUnits="userSpaceOnUse">
            <path d="M2394.6 2215.39c-18.57 10.29-93.46 7.98-99.73-61.43 2.55-1.02 63.91 15.35 86.26 27.04 10.84 5.66 24.05 18.19 19.49 28.27-1.53 3.36-4.45 5.15-6.02 6.12"/>
        </clipPath>
        <clipPath id="f" clipPathUnits="userSpaceOnUse">
            <path d="M2336.13 2248c-13.54 6.15-78.91 9.79-123.68-47.94 30.6-.48 142.86 26.63 126.34 45.92-.01.01-1.07 1.23-2.66 2.02"/>
        </clipPath>
        <clipPath id="h" clipPathUnits="userSpaceOnUse">
            <path d="M1978.72 1868.59c-27.89 12.91-67.53-26.49-48.45-114.32 7.88 5.86 47.67 36.12 56.56 57.08 13.26 31.3 2.42 51.38-8.11 57.24"/>
        </clipPath>
        <clipPath id="j" clipPathUnits="userSpaceOnUse">
            <path d="M1991.29 1754.15c-93.24-42.18-77.42-123.99-47.58-136.17 17.97-7.34 36.15 12.21 41.86 28.51 9.43 27.03 8.32 73.47 5.72 107.66"/>
        </clipPath>
        <clipPath id="l" clipPathUnits="userSpaceOnUse">
            <path d="M1895.62 1807.52c-71.26-76.12-49.01-149.14-23.3-147.61.51.03 50.52 4.67 23.3 147.61"/>
        </clipPath>
        <clipPath id="n" clipPathUnits="userSpaceOnUse">
            <path d="M1995.03 2104.76c-17.85 5.03-58.7-20.33-58.99-20.62-.18-.2-11.66-31.98-4.29-45.35 11.2-20.31 59.57 20.08 67.37 49.88 3.03 11.53-1.85 15.09-4.09 16.09"/>
        </clipPath>
        <clipPath id="p" clipPathUnits="userSpaceOnUse">
            <path d="M2008.85 2177.03c-17.61 5.21-86.17-53.48-78.89-67.52 2.78-5.37 13.79-1.09 73.59 28.61 10.79 36.11 7.99 37.53 5.3 38.91"/>
        </clipPath>
        <clipPath id="r" clipPathUnits="userSpaceOnUse">
            <path d="M1903.12 2074.89c-11.23 2.12-31.75-22.36-41.04-35.6-17.76-25.33-24.59-46.71-20.93-52.75 5.15-8.5 54.45 24.78 54.83 25.31.39.54 16.59 60.4 7.14 63.04"/>
        </clipPath>
        <clipPath id="t" clipPathUnits="userSpaceOnUse">
            <path d="M2246.77 1964.12c-39.64 20.94-80.94-20.24-68.13-55.3 9.55-26.12 44.25-32.18 103.14-18.02-2.05 9.86-13.39 59.75-35.01 73.32"/>
        </clipPath>
        <clipPath id="v" clipPathUnits="userSpaceOnUse">
            <path d="M2402.12 1956.98c-27.93 14.83-73.1 14.42-97.52 12.85 11.25-114.81 82.6-117.01 109.42-82.27 18.81 24.35 9.05 57.31-11.9 69.42"/>
        </clipPath>
        <clipPath id="x" clipPathUnits="userSpaceOnUse">
            <path d="M2322.46 1840.25c-34.87 21.31-103.95-1.68-111.72-4.37 51.97-150.15 120.26-79.63 128.76-63.8 11.25 20.95 9.02 51.09-17.04 68.17"/>
        </clipPath>
        <clipPath id="z" clipPathUnits="userSpaceOnUse">
            <path d="M2337.81 2077.98c-81.16 47.82-119.54.18-113.42-25.81 4.28-18.16 26.05-25.08 43.77-21.07 23.85 5.39 56.78 34.51 69.84 46.77z"/>
        </clipPath>
        <clipPath id="B" clipPathUnits="userSpaceOnUse">
            <path d="M2434.8 2065.2c-50.71 29.29-107.33-40.48-118.16-54.77 24.72-9.82 73.06-24.53 97.45-17.28 30.99 9.2 43.11 37.17 34.6 56.5-3.51 7.99-9.49 12.86-13.89 15.55"/>
        </clipPath>
        <clipPath id="D" clipPathUnits="userSpaceOnUse">
            <path d="M2426.82 2156.89c-33.62 19.14-88.41-9.35-118.08-28.03 85.47-56.15 134.77-14.04 130.42 11.6-1.11 6.57-5.38 12.24-12.34 16.43"/>
        </clipPath>
        <clipPath id="F" clipPathUnits="userSpaceOnUse">
            <path d="M1928.57 1968.83c-23.46 10.63-55.96-43.85-70.93-80.7l-.03-.07c69.82-23.75 85.46 58.27 76.74 74.82-1.79 3.39-4.14 5.11-5.78 5.95"/>
        </clipPath>
        <clipPath id="H" clipPathUnits="userSpaceOnUse">
            <path d="M1874.75 1839.39c-65.51 32.64-73.39-63.71-65.4-86.13 13.31-37.34 38.44 15.53 49.18 38.11.12.26 20.46 43.38 21.28 45.13a68 68 0 0 1-5.06 2.89"/>
        </clipPath>
        <clipPath id="J" clipPathUnits="userSpaceOnUse">
            <path d="M1878.75 1968.69c-15.77.61-38.06-3.7-54.6-27.65-20.46-29.62-29.3-71.83-20.95-81.72 5.08-6.02 13.9-.04 26.21 17.77 4.55 6.58 4.55 6.58 49.34 91.6"/>
        </clipPath>
        <clipPath id="L" clipPathUnits="userSpaceOnUse">
            <path d="M2118.81 2200.31c-50.13-30.49-74.76-63.54-51.67-69.35 20.06-5.05 81.42 26.79 67.27 53.72-3.85 7.34-11.62 13.28-15.6 15.63"/>
        </clipPath>
        <clipPath id="N" clipPathUnits="userSpaceOnUse">
            <path d="M2246.87 2257.41c-19.02 8.25-98.44-13.88-91.58-36.98 2.84-9.51 19.72-17.36 23.07-18.84 1.65.69 58.47 37.59 65.93 43.67 1.73 1.4 9.93 8.58 2.58 12.15"/>
        </clipPath>
        <clipPath id="P" clipPathUnits="userSpaceOnUse">
            <path d="M2128.41 2236.57c-9.97 3.57-46.39-9.44-73.11-29.16-12.38-9.13-24.02-20.67-16.55-37 1.63-3.56 3.71-6.15 4.39-7 2.39.74 74.9 55.16 75.49 55.67 10.66 9.02 14.17 14.79 10.45 17.14z"/>
        </clipPath>
        <clipPath id="R" clipPathUnits="userSpaceOnUse">
            <path d="M2112.21 1866.32c-35.2 19.38-72.63-26.75-61.24-61.47 9.01-27.46 47.71-51.28 52.1-53.91l.04.07c45.55 93.83 20.93 108.34 9.1 115.31"/>
        </clipPath>
        <clipPath id="T" clipPathUnits="userSpaceOnUse">
            <path d="M2171.51 1805.07c-72.45-109.06-22.42-159.25 17.32-150.29 15.85 3.57 95.13 50.18-17.32 150.29"/>
        </clipPath>
        <clipPath id="V" clipPathUnits="userSpaceOnUse">
            <path d="M2036.45 1749.14c-1.92 1.12-4.21 2.45-7.21 4-1.14-.83-19.42-57.52-12.26-101.14 1.79-10.85 12.74-34.59 35.23-38.77 36.64-6.8 65.77 45.96 37.74 88.72-10.58 16.15-30.09 33.35-53.5 47.19"/>
        </clipPath>
    </defs>
    <path d="M2273.64 2191.98c-85.94-9.94-111.35-45.9-91.87-60.83 10.33-7.92 34.15-7.42 56.12 7.12 4.51 2.98 18.24 12.08 35.75 53.71" clip-path="url(#b)" style="fill:url(#a);fill-opacity:1;fill-rule:nonzero;stroke:none" transform="matrix(.13333 0 0 -.13333 0 516.24)"/>
    <path d="M2394.6 2215.39c-18.57 10.29-93.46 7.98-99.73-61.43 2.55-1.02 63.91 15.35 86.26 27.04 10.84 5.66 24.05 18.19 19.49 28.27-1.53 3.36-4.45 5.15-6.02 6.12" clip-path="url(#d)" style="fill:url(#c);fill-opacity:1;fill-rule:nonzero;stroke:none" transform="matrix(.13333 0 0 -.13333 0 516.24)"/>
    <path d="M2336.13 2248c-13.54 6.15-78.91 9.79-123.68-47.94 30.6-.48 142.86 26.63 126.34 45.92-.01.01-1.07 1.23-2.66 2.02" clip-path="url(#f)" style="fill:url(#e);fill-opacity:1;fill-rule:nonzero;stroke:none" transform="matrix(.13333 0 0 -.13333 0 516.24)"/>
    <path d="M1978.72 1868.59c-27.89 12.91-67.53-26.49-48.45-114.32 7.88 5.86 47.67 36.12 56.56 57.08 13.26 31.3 2.42 51.38-8.11 57.24" clip-path="url(#h)" style="fill:url(#g);fill-opacity:1;fill-rule:nonzero;stroke:none" transform="matrix(.13333 0 0 -.13333 0 516.24)"/>
    <path d="M1991.29 1754.15c-93.24-42.18-77.42-123.99-47.58-136.17 17.97-7.34 36.15 12.21 41.86 28.51 9.43 27.03 8.32 73.47 5.72 107.66" clip-path="url(#j)" style="fill:url(#i);fill-opacity:1;fill-rule:nonzero;stroke:none" transform="matrix(.13333 0 0 -.13333 0 516.24)"/>
    <path d="M1895.62 1807.52c-71.26-76.12-49.01-149.14-23.3-147.61.51.03 50.52 4.67 23.3 147.61" clip-path="url(#l)" style="fill:url(#k);fill-opacity:1;fill-rule:nonzero;stroke:none" transform="matrix(.13333 0 0 -.13333 0 516.24)"/>
    <path d="M1995.03 2104.76c-17.85 5.03-58.7-20.33-58.99-20.62-.18-.2-11.66-31.98-4.29-45.35 11.2-20.31 59.57 20.08 67.37 49.88 3.03 11.53-1.85 15.09-4.09 16.09" clip-path="url(#n)" style="fill:url(#m);fill-opacity:1;fill-rule:nonzero;stroke:none" transform="matrix(.13333 0 0 -.13333 0 516.24)"/>
    <path d="M2008.85 2177.03c-17.61 5.21-86.17-53.48-78.89-67.52 2.78-5.37 13.79-1.09 73.59 28.61 10.79 36.11 7.99 37.53 5.3 38.91" clip-path="url(#p)" style="fill:url(#o);fill-opacity:1;fill-rule:nonzero;stroke:none" transform="matrix(.13333 0 0 -.13333 0 516.24)"/>
    <path d="M1903.12 2074.89c-11.23 2.12-31.75-22.36-41.04-35.6-17.76-25.33-24.59-46.71-20.93-52.75 5.15-8.5 54.45 24.78 54.83 25.31.39.54 16.59 60.4 7.14 63.04" clip-path="url(#r)" style="fill:url(#q);fill-opacity:1;fill-rule:nonzero;stroke:none" transform="matrix(.13333 0 0 -.13333 0 516.24)"/>
    <path d="M2246.77 1964.12c-39.64 20.94-80.94-20.24-68.13-55.3 9.55-26.12 44.25-32.18 103.14-18.02-2.05 9.86-13.39 59.75-35.01 73.32" clip-path="url(#t)" style="fill:url(#s);fill-opacity:1;fill-rule:nonzero;stroke:none" transform="matrix(.13333 0 0 -.13333 0 516.24)"/>
    <path d="M2402.12 1956.98c-27.93 14.83-73.1 14.42-97.52 12.85 11.25-114.81 82.6-117.01 109.42-82.27 18.81 24.35 9.05 57.31-11.9 69.42" clip-path="url(#v)" style="fill:url(#u);fill-opacity:1;fill-rule:nonzero;stroke:none" transform="matrix(.13333 0 0 -.13333 0 516.24)"/>
    <path d="M2322.46 1840.25c-34.87 21.31-103.95-1.68-111.72-4.37 51.97-150.15 120.26-79.63 128.76-63.8 11.25 20.95 9.02 51.09-17.04 68.17" clip-path="url(#x)" style="fill:url(#w);fill-opacity:1;fill-rule:nonzero;stroke:none" transform="matrix(.13333 0 0 -.13333 0 516.24)"/>
    <path d="M2337.81 2077.98c-81.16 47.82-119.54.18-113.42-25.81 4.28-18.16 26.05-25.08 43.77-21.07 23.85 5.39 56.78 34.51 69.84 46.77z" clip-path="url(#z)" style="fill:url(#y);fill-opacity:1;fill-rule:nonzero;stroke:none" transform="matrix(.13333 0 0 -.13333 0 516.24)"/>
    <path d="M2434.8 2065.2c-50.71 29.29-107.33-40.48-118.16-54.77 24.72-9.82 73.06-24.53 97.45-17.28 30.99 9.2 43.11 37.17 34.6 56.5-3.51 7.99-9.49 12.86-13.89 15.55" clip-path="url(#B)" style="fill:url(#A);fill-opacity:1;fill-rule:nonzero;stroke:none" transform="matrix(.13333 0 0 -.13333 0 516.24)"/>
    <path d="M2426.82 2156.89c-33.62 19.14-88.41-9.35-118.08-28.03 85.47-56.15 134.77-14.04 130.42 11.6-1.11 6.57-5.38 12.24-12.34 16.43" clip-path="url(#D)" style="fill:url(#C);fill-opacity:1;fill-rule:nonzero;stroke:none" transform="matrix(.13333 0 0 -.13333 0 516.24)"/>
    <path d="M1928.57 1968.83c-23.46 10.63-55.96-43.85-70.93-80.7l-.03-.07c69.82-23.75 85.46 58.27 76.74 74.82-1.79 3.39-4.14 5.11-5.78 5.95" clip-path="url(#F)" style="fill:url(#E);fill-opacity:1;fill-rule:nonzero;stroke:none" transform="matrix(.13333 0 0 -.13333 0 516.24)"/>
    <path d="M1874.75 1839.39c-65.51 32.64-73.39-63.71-65.4-86.13 13.31-37.34 38.44 15.53 49.18 38.11.12.26 20.46 43.38 21.28 45.13a68 68 0 0 1-5.06 2.89" clip-path="url(#H)" style="fill:url(#G);fill-opacity:1;fill-rule:nonzero;stroke:none" transform="matrix(.13333 0 0 -.13333 0 516.24)"/>
    <path d="M1878.75 1968.69c-15.77.61-38.06-3.7-54.6-27.65-20.46-29.62-29.3-71.83-20.95-81.72 5.08-6.02 13.9-.04 26.21 17.77 4.55 6.58 4.55 6.58 49.34 91.6" clip-path="url(#J)" style="fill:url(#I);fill-opacity:1;fill-rule:nonzero;stroke:none" transform="matrix(.13333 0 0 -.13333 0 516.24)"/>
    <path d="M2118.81 2200.31c-50.13-30.49-74.76-63.54-51.67-69.35 20.06-5.05 81.42 26.79 67.27 53.72-3.85 7.34-11.62 13.28-15.6 15.63" clip-path="url(#L)" style="fill:url(#K);fill-opacity:1;fill-rule:nonzero;stroke:none" transform="matrix(.13333 0 0 -.13333 0 516.24)"/>
    <path d="M2246.87 2257.41c-19.02 8.25-98.44-13.88-91.58-36.98 2.84-9.51 19.72-17.36 23.07-18.84 1.65.69 58.47 37.59 65.93 43.67 1.73 1.4 9.93 8.58 2.58 12.15" clip-path="url(#N)" style="fill:url(#M);fill-opacity:1;fill-rule:nonzero;stroke:none" transform="matrix(.13333 0 0 -.13333 0 516.24)"/>
    <path d="M2128.41 2236.57c-9.97 3.57-46.39-9.44-73.11-29.16-12.38-9.13-24.02-20.67-16.55-37 1.63-3.56 3.71-6.15 4.39-7 2.39.74 74.9 55.16 75.49 55.67 10.66 9.02 14.17 14.79 10.45 17.14z" clip-path="url(#P)" style="fill:url(#O);fill-opacity:1;fill-rule:nonzero;stroke:none" transform="matrix(.13333 0 0 -.13333 0 516.24)"/>
    <path d="M2112.21 1866.32c-35.2 19.38-72.63-26.75-61.24-61.47 9.01-27.46 47.71-51.28 52.1-53.91l.04.07c45.55 93.83 20.93 108.34 9.1 115.31" clip-path="url(#R)" style="fill:url(#Q);fill-opacity:1;fill-rule:nonzero;stroke:none" transform="matrix(.13333 0 0 -.13333 0 516.24)"/>
    <path d="M2171.51 1805.07c-72.45-109.06-22.42-159.25 17.32-150.29 15.85 3.57 95.13 50.18-17.32 150.29" clip-path="url(#T)" style="fill:url(#S);fill-opacity:1;fill-rule:nonzero;stroke:none" transform="matrix(.13333 0 0 -.13333 0 516.24)"/>
    <path d="M2036.45 1749.14c-1.92 1.12-4.21 2.45-7.21 4-1.14-.83-19.42-57.52-12.26-101.14 1.79-10.85 12.74-34.59 35.23-38.77 36.64-6.8 65.77 45.96 37.74 88.72-10.58 16.15-30.09 33.35-53.5 47.19" clip-path="url(#V)" style="fill:url(#U);fill-opacity:1;fill-rule:nonzero;stroke:none" transform="matrix(.13333 0 0 -.13333 0 516.24)"/>
</svg>
