<?xml version="1.0" encoding="UTF-8" standalone="no"?>
<!-- Created with Inkscape (http://www.inkscape.org/) -->

<svg
   version="1.1"
   id="svg1"
   width="120"
   height="120"
   viewBox="228 205 120 120"
   sodipodi:docname="Green World Technology (3).eps"
   xmlns:inkscape="http://www.inkscape.org/namespaces/inkscape"
   xmlns:sodipodi="http://sodipodi.sourceforge.net/DTD/sodipodi-0.dtd"
   xmlns="http://www.w3.org/2000/svg"
   xmlns:svg="http://www.w3.org/2000/svg">
  <defs
     id="defs1">
    <linearGradient
       x1="0"
       y1="0"
       x2="1"
       y2="0"
       gradientUnits="userSpaceOnUse"
       gradientTransform="matrix(-684.255,-461.277,-461.277,684.255,2555.73,2382.06)"
       spreadMethod="pad"
       id="linearGradient5">
      <stop
         style="stop-opacity:1;stop-color:#60a5fa"
         offset="0"
         id="stop3" />
      <stop
         style="stop-opacity:1;stop-color:#60a5fa"
         offset="0.385028"
         id="stop4" />
      <stop
         style="stop-opacity:1;stop-color:#2563eb"
         offset="1"
         id="stop5" />
    </linearGradient>
    <clipPath
       clipPathUnits="userSpaceOnUse"
       id="clipPath5">
      <path
         d="m 2273.64,2191.98 c -85.94,-9.94 -111.35,-45.9 -91.87,-60.83 10.33,-7.92 34.15,-7.42 56.12,7.12 4.51,2.98 18.24,12.08 35.75,53.71"
         id="path5" />
    </clipPath>
    <linearGradient
       x1="0"
       y1="0"
       x2="1"
       y2="0"
       gradientUnits="userSpaceOnUse"
       gradientTransform="matrix(-684.255,-461.277,-461.277,684.255,2579.64,2346.6)"
       spreadMethod="pad"
       id="linearGradient8">
      <stop
         style="stop-opacity:1;stop-color:#60a5fa"
         offset="0"
         id="stop6" />
      <stop
         style="stop-opacity:1;stop-color:#60a5fa"
         offset="0.385028"
         id="stop7" />
      <stop
         style="stop-opacity:1;stop-color:#2563eb"
         offset="1"
         id="stop8" />
    </linearGradient>
    <clipPath
       clipPathUnits="userSpaceOnUse"
       id="clipPath8">
      <path
         d="m 2394.6,2215.39 c -18.57,10.29 -93.46,7.98 -99.73,-61.43 2.55,-1.02 63.91,15.35 86.26,27.04 10.84,5.66 24.05,18.19 19.49,28.27 -1.53,3.36 -4.45,5.15 -6.02,6.12"
         id="path8" />
    </clipPath>
    <linearGradient
       x1="0"
       y1="0"
       x2="1"
       y2="0"
       gradientUnits="userSpaceOnUse"
       gradientTransform="matrix(-684.255,-461.277,-461.277,684.255,2542.24,2402.08)"
       spreadMethod="pad"
       id="linearGradient11">
      <stop
         style="stop-opacity:1;stop-color:#60a5fa"
         offset="0"
         id="stop9" />
      <stop
         style="stop-opacity:1;stop-color:#60a5fa"
         offset="0.385028"
         id="stop10" />
      <stop
         style="stop-opacity:1;stop-color:#2563eb"
         offset="1"
         id="stop11" />
    </linearGradient>
    <clipPath
       clipPathUnits="userSpaceOnUse"
       id="clipPath11">
      <path
         d="m 2336.13,2248 c -13.54,6.15 -78.91,9.79 -123.68,-47.94 30.6,-0.48 142.86,26.63 126.34,45.92 -0.01,0.01 -1.07,1.23 -2.66,2.02"
         id="path11" />
    </clipPath>
    <linearGradient
       x1="0"
       y1="0"
       x2="1"
       y2="0"
       gradientUnits="userSpaceOnUse"
       gradientTransform="matrix(-684.255,-461.277,-461.277,684.255,2628.79,2273.69)"
       spreadMethod="pad"
       id="linearGradient14">
      <stop
         style="stop-opacity:1;stop-color:#60a5fa"
         offset="0"
         id="stop12" />
      <stop
         style="stop-opacity:1;stop-color:#60a5fa"
         offset="0.385028"
         id="stop13" />
      <stop
         style="stop-opacity:1;stop-color:#2563eb"
         offset="1"
         id="stop14" />
    </linearGradient>
    <clipPath
       clipPathUnits="userSpaceOnUse"
       id="clipPath14">
      <path
         d="m 1978.72,1868.59 c -27.89,12.91 -67.53,-26.49 -48.45,-114.32 7.88,5.86 47.67,36.12 56.56,57.08 13.26,31.3 2.42,51.38 -8.11,57.24"
         id="path14" />
    </clipPath>
    <linearGradient
       x1="0"
       y1="0"
       x2="1"
       y2="0"
       gradientUnits="userSpaceOnUse"
       gradientTransform="matrix(-684.255,-461.277,-461.277,684.255,2696.61,2173.08)"
       spreadMethod="pad"
       id="linearGradient17">
      <stop
         style="stop-opacity:1;stop-color:#60a5fa"
         offset="0"
         id="stop15" />
      <stop
         style="stop-opacity:1;stop-color:#60a5fa"
         offset="0.385028"
         id="stop16" />
      <stop
         style="stop-opacity:1;stop-color:#2563eb"
         offset="1"
         id="stop17" />
    </linearGradient>
    <clipPath
       clipPathUnits="userSpaceOnUse"
       id="clipPath17">
      <path
         d="m 1991.29,1754.15 c -93.24,-42.18 -77.42,-123.99 -47.58,-136.17 17.97,-7.34 36.15,12.21 41.86,28.51 9.43,27.03 8.32,73.47 5.72,107.66"
         id="path17" />
    </clipPath>
    <linearGradient
       x1="0"
       y1="0"
       x2="1"
       y2="0"
       gradientUnits="userSpaceOnUse"
       gradientTransform="matrix(-684.255,-461.277,-461.277,684.255,2646.86,2246.88)"
       spreadMethod="pad"
       id="linearGradient20">
      <stop
         style="stop-opacity:1;stop-color:#60a5fa"
         offset="0"
         id="stop18" />
      <stop
         style="stop-opacity:1;stop-color:#60a5fa"
         offset="0.385028"
         id="stop19" />
      <stop
         style="stop-opacity:1;stop-color:#2563eb"
         offset="1"
         id="stop20" />
    </linearGradient>
    <clipPath
       clipPathUnits="userSpaceOnUse"
       id="clipPath20">
      <path
         d="m 1895.62,1807.52 c -71.26,-76.12 -49.01,-149.14 -23.3,-147.61 0.51,0.03 50.52,4.67 23.3,147.61"
         id="path20" />
    </clipPath>
    <linearGradient
       x1="0"
       y1="0"
       x2="1"
       y2="0"
       gradientUnits="userSpaceOnUse"
       gradientTransform="matrix(-684.255,-461.277,-461.277,684.255,2514.13,2443.77)"
       spreadMethod="pad"
       id="linearGradient23">
      <stop
         style="stop-opacity:1;stop-color:#60a5fa"
         offset="0"
         id="stop21" />
      <stop
         style="stop-opacity:1;stop-color:#60a5fa"
         offset="0.385028"
         id="stop22" />
      <stop
         style="stop-opacity:1;stop-color:#2563eb"
         offset="1"
         id="stop23" />
    </linearGradient>
    <clipPath
       clipPathUnits="userSpaceOnUse"
       id="clipPath23">
      <path
         d="m 1995.03,2104.76 c -17.85,5.03 -58.7,-20.33 -58.99,-20.62 -0.18,-0.2 -11.66,-31.98 -4.29,-45.35 11.2,-20.31 59.57,20.08 67.37,49.88 3.03,11.53 -1.85,15.09 -4.09,16.09"
         id="path23" />
    </clipPath>
    <linearGradient
       x1="0"
       y1="0"
       x2="1"
       y2="0"
       gradientUnits="userSpaceOnUse"
       gradientTransform="matrix(-684.255,-461.277,-461.277,684.255,2486.2,2485.2)"
       spreadMethod="pad"
       id="linearGradient26">
      <stop
         style="stop-opacity:1;stop-color:#60a5fa"
         offset="0"
         id="stop24" />
      <stop
         style="stop-opacity:1;stop-color:#60a5fa"
         offset="0.385028"
         id="stop25" />
      <stop
         style="stop-opacity:1;stop-color:#2563eb"
         offset="1"
         id="stop26" />
    </linearGradient>
    <clipPath
       clipPathUnits="userSpaceOnUse"
       id="clipPath26">
      <path
         d="m 2008.85,2177.03 c -17.61,5.21 -86.17,-53.48 -78.89,-67.52 2.78,-5.37 13.79,-1.09 73.59,28.61 10.79,36.11 7.99,37.53 5.3,38.91"
         id="path26" />
    </clipPath>
    <linearGradient
       x1="0"
       y1="0"
       x2="1"
       y2="0"
       gradientUnits="userSpaceOnUse"
       gradientTransform="matrix(-684.255,-461.277,-461.277,684.255,2506.81,2454.64)"
       spreadMethod="pad"
       id="linearGradient29">
      <stop
         style="stop-opacity:1;stop-color:#60a5fa"
         offset="0"
         id="stop27" />
      <stop
         style="stop-opacity:1;stop-color:#60a5fa"
         offset="0.385028"
         id="stop28" />
      <stop
         style="stop-opacity:1;stop-color:#2563eb"
         offset="1"
         id="stop29" />
    </linearGradient>
    <clipPath
       clipPathUnits="userSpaceOnUse"
       id="clipPath29">
      <path
         d="m 1903.12,2074.89 c -11.23,2.12 -31.75,-22.36 -41.04,-35.6 -17.76,-25.33 -24.59,-46.71 -20.93,-52.75 5.15,-8.5 54.45,24.78 54.83,25.31 0.39,0.54 16.59,60.4 7.14,63.04"
         id="path29" />
    </clipPath>
    <linearGradient
       x1="0"
       y1="0"
       x2="1"
       y2="0"
       gradientUnits="userSpaceOnUse"
       gradientTransform="matrix(-684.255,-461.277,-461.277,684.255,2668.4,2214.94)"
       spreadMethod="pad"
       id="linearGradient32">
      <stop
         style="stop-opacity:1;stop-color:#60a5fa"
         offset="0"
         id="stop30" />
      <stop
         style="stop-opacity:1;stop-color:#60a5fa"
         offset="0.385028"
         id="stop31" />
      <stop
         style="stop-opacity:1;stop-color:#2563eb"
         offset="1"
         id="stop32" />
    </linearGradient>
    <clipPath
       clipPathUnits="userSpaceOnUse"
       id="clipPath32">
      <path
         d="m 2246.77,1964.12 c -39.64,20.94 -80.94,-20.24 -68.13,-55.3 9.55,-26.12 44.25,-32.18 103.14,-18.02 -2.05,9.86 -13.39,59.75 -35.01,73.32"
         id="path32" />
    </clipPath>
    <linearGradient
       x1="0"
       y1="0"
       x2="1"
       y2="0"
       gradientUnits="userSpaceOnUse"
       gradientTransform="matrix(-684.255,-461.277,-461.277,684.255,2705.21,2160.33)"
       spreadMethod="pad"
       id="linearGradient35">
      <stop
         style="stop-opacity:1;stop-color:#60a5fa"
         offset="0"
         id="stop33" />
      <stop
         style="stop-opacity:1;stop-color:#60a5fa"
         offset="0.385028"
         id="stop34" />
      <stop
         style="stop-opacity:1;stop-color:#2563eb"
         offset="1"
         id="stop35" />
    </linearGradient>
    <clipPath
       clipPathUnits="userSpaceOnUse"
       id="clipPath35">
      <path
         d="m 2402.12,1956.98 c -27.93,14.83 -73.1,14.42 -97.52,12.85 11.25,-114.81 82.6,-117.01 109.42,-82.27 18.81,24.35 9.05,57.31 -11.9,69.42"
         id="path35" />
    </clipPath>
    <linearGradient
       x1="0"
       y1="0"
       x2="1"
       y2="0"
       gradientUnits="userSpaceOnUse"
       gradientTransform="matrix(-684.255,-461.277,-461.277,684.255,2737.6,2112.28)"
       spreadMethod="pad"
       id="linearGradient38">
      <stop
         style="stop-opacity:1;stop-color:#60a5fa"
         offset="0"
         id="stop36" />
      <stop
         style="stop-opacity:1;stop-color:#60a5fa"
         offset="0.385028"
         id="stop37" />
      <stop
         style="stop-opacity:1;stop-color:#2563eb"
         offset="1"
         id="stop38" />
    </linearGradient>
    <clipPath
       clipPathUnits="userSpaceOnUse"
       id="clipPath38">
      <path
         d="m 2322.46,1840.25 c -34.87,21.31 -103.95,-1.68 -111.72,-4.37 51.97,-150.15 120.26,-79.63 128.76,-63.8 11.25,20.95 9.02,51.09 -17.04,68.17"
         id="path38" />
    </clipPath>
    <linearGradient
       x1="0"
       y1="0"
       x2="1"
       y2="0"
       gradientUnits="userSpaceOnUse"
       gradientTransform="matrix(-684.255,-461.277,-461.277,684.255,2612.35,2298.07)"
       spreadMethod="pad"
       id="linearGradient41">
      <stop
         style="stop-opacity:1;stop-color:#60a5fa"
         offset="0"
         id="stop39" />
      <stop
         style="stop-opacity:1;stop-color:#60a5fa"
         offset="0.385028"
         id="stop40" />
      <stop
         style="stop-opacity:1;stop-color:#2563eb"
         offset="1"
         id="stop41" />
    </linearGradient>
    <clipPath
       clipPathUnits="userSpaceOnUse"
       id="clipPath41">
      <path
         d="m 2337.81,2077.98 c -81.16,47.82 -119.54,0.18 -113.42,-25.81 4.28,-18.16 26.05,-25.08 43.77,-21.07 23.85,5.39 56.78,34.51 69.84,46.77 l -0.19,0.11"
         id="path41" />
    </clipPath>
    <linearGradient
       x1="0"
       y1="0"
       x2="1"
       y2="0"
       gradientUnits="userSpaceOnUse"
       gradientTransform="matrix(-684.255,-461.277,-461.277,684.255,2670.05,2212.48)"
       spreadMethod="pad"
       id="linearGradient44">
      <stop
         style="stop-opacity:1;stop-color:#60a5fa"
         offset="0"
         id="stop42" />
      <stop
         style="stop-opacity:1;stop-color:#60a5fa"
         offset="0.385028"
         id="stop43" />
      <stop
         style="stop-opacity:1;stop-color:#2563eb"
         offset="1"
         id="stop44" />
    </linearGradient>
    <clipPath
       clipPathUnits="userSpaceOnUse"
       id="clipPath44">
      <path
         d="m 2434.8,2065.2 c -50.71,29.29 -107.33,-40.48 -118.16,-54.77 24.72,-9.82 73.06,-24.53 97.45,-17.28 30.99,9.2 43.11,37.17 34.6,56.5 -3.51,7.99 -9.49,12.86 -13.89,15.55"
         id="path44" />
    </clipPath>
    <linearGradient
       x1="0"
       y1="0"
       x2="1"
       y2="0"
       gradientUnits="userSpaceOnUse"
       gradientTransform="matrix(-684.255,-461.277,-461.277,684.255,2617.87,2289.89)"
       spreadMethod="pad"
       id="linearGradient47">
      <stop
         style="stop-opacity:1;stop-color:#60a5fa"
         offset="0"
         id="stop45" />
      <stop
         style="stop-opacity:1;stop-color:#60a5fa"
         offset="0.385028"
         id="stop46" />
      <stop
         style="stop-opacity:1;stop-color:#2563eb"
         offset="1"
         id="stop47" />
    </linearGradient>
    <clipPath
       clipPathUnits="userSpaceOnUse"
       id="clipPath47">
      <path
         d="m 2426.82,2156.89 c -33.62,19.14 -88.41,-9.35 -118.08,-28.03 85.47,-56.15 134.77,-14.04 130.42,11.6 -1.11,6.57 -5.38,12.24 -12.34,16.43"
         id="path47" />
    </clipPath>
    <linearGradient
       x1="0"
       y1="0"
       x2="1"
       y2="0"
       gradientUnits="userSpaceOnUse"
       gradientTransform="matrix(-684.255,-461.277,-461.277,684.255,2563.74,2370.18)"
       spreadMethod="pad"
       id="linearGradient50">
      <stop
         style="stop-opacity:1;stop-color:#60a5fa"
         offset="0"
         id="stop48" />
      <stop
         style="stop-opacity:1;stop-color:#60a5fa"
         offset="0.385028"
         id="stop49" />
      <stop
         style="stop-opacity:1;stop-color:#2563eb"
         offset="1"
         id="stop50" />
    </linearGradient>
    <clipPath
       clipPathUnits="userSpaceOnUse"
       id="clipPath50">
      <path
         d="m 1928.57,1968.83 c -23.46,10.63 -55.96,-43.85 -70.93,-80.7 l -0.03,-0.07 c 69.82,-23.75 85.46,58.27 76.74,74.82 -1.79,3.39 -4.14,5.11 -5.78,5.95"
         id="path50" />
    </clipPath>
    <linearGradient
       x1="0"
       y1="0"
       x2="1"
       y2="0"
       gradientUnits="userSpaceOnUse"
       gradientTransform="matrix(-684.255,-461.277,-461.277,684.255,2602.54,2312.63)"
       spreadMethod="pad"
       id="linearGradient53">
      <stop
         style="stop-opacity:1;stop-color:#60a5fa"
         offset="0"
         id="stop51" />
      <stop
         style="stop-opacity:1;stop-color:#60a5fa"
         offset="0.385028"
         id="stop52" />
      <stop
         style="stop-opacity:1;stop-color:#2563eb"
         offset="1"
         id="stop53" />
    </linearGradient>
    <clipPath
       clipPathUnits="userSpaceOnUse"
       id="clipPath53">
      <path
         d="m 1874.75,1839.39 c -65.51,32.64 -73.39,-63.71 -65.4,-86.13 13.31,-37.34 38.44,15.53 49.18,38.11 0.12,0.26 20.46,43.38 21.28,45.13 -2.23,1.41 -4.28,2.49 -5.06,2.89"
         id="path53" />
    </clipPath>
    <linearGradient
       x1="0"
       y1="0"
       x2="1"
       y2="0"
       gradientUnits="userSpaceOnUse"
       gradientTransform="matrix(-684.255,-461.277,-461.277,684.255,2547.51,2394.26)"
       spreadMethod="pad"
       id="linearGradient56">
      <stop
         style="stop-opacity:1;stop-color:#60a5fa"
         offset="0"
         id="stop54" />
      <stop
         style="stop-opacity:1;stop-color:#60a5fa"
         offset="0.385028"
         id="stop55" />
      <stop
         style="stop-opacity:1;stop-color:#2563eb"
         offset="1"
         id="stop56" />
    </linearGradient>
    <clipPath
       clipPathUnits="userSpaceOnUse"
       id="clipPath56">
      <path
         d="m 1878.75,1968.69 c -15.77,0.61 -38.06,-3.7 -54.6,-27.65 -20.46,-29.62 -29.3,-71.83 -20.95,-81.72 5.08,-6.02 13.9,-0.04 26.21,17.77 4.55,6.58 4.55,6.58 49.34,91.6"
         id="path56" />
    </clipPath>
    <linearGradient
       x1="0"
       y1="0"
       x2="1"
       y2="0"
       gradientUnits="userSpaceOnUse"
       gradientTransform="matrix(-684.255,-461.277,-461.277,684.255,2515.17,2442.23)"
       spreadMethod="pad"
       id="linearGradient59">
      <stop
         style="stop-opacity:1;stop-color:#60a5fa"
         offset="0"
         id="stop57" />
      <stop
         style="stop-opacity:1;stop-color:#60a5fa"
         offset="0.385028"
         id="stop58" />
      <stop
         style="stop-opacity:1;stop-color:#2563eb"
         offset="1"
         id="stop59" />
    </linearGradient>
    <clipPath
       clipPathUnits="userSpaceOnUse"
       id="clipPath59">
      <path
         d="m 2118.81,2200.31 c -50.13,-30.49 -74.76,-63.54 -51.67,-69.35 20.06,-5.05 81.42,26.79 67.27,53.72 -3.85,7.34 -11.62,13.28 -15.6,15.63"
         id="path59" />
    </clipPath>
    <linearGradient
       x1="0"
       y1="0"
       x2="1"
       y2="0"
       gradientUnits="userSpaceOnUse"
       gradientTransform="matrix(-684.255,-461.277,-461.277,684.255,2511.24,2448.06)"
       spreadMethod="pad"
       id="linearGradient62">
      <stop
         style="stop-opacity:1;stop-color:#60a5fa"
         offset="0"
         id="stop60" />
      <stop
         style="stop-opacity:1;stop-color:#60a5fa"
         offset="0.385028"
         id="stop61" />
      <stop
         style="stop-opacity:1;stop-color:#2563eb"
         offset="1"
         id="stop62" />
    </linearGradient>
    <clipPath
       clipPathUnits="userSpaceOnUse"
       id="clipPath62">
      <path
         d="m 2246.87,2257.41 c -19.02,8.25 -98.44,-13.88 -91.58,-36.98 2.84,-9.51 19.72,-17.36 23.07,-18.84 1.65,0.69 58.47,37.59 65.93,43.67 1.73,1.4 9.93,8.58 2.58,12.15"
         id="path62" />
    </clipPath>
    <linearGradient
       x1="0"
       y1="0"
       x2="1"
       y2="0"
       gradientUnits="userSpaceOnUse"
       gradientTransform="matrix(-684.255,-461.277,-461.277,684.255,2488.6,2481.65)"
       spreadMethod="pad"
       id="linearGradient65">
      <stop
         style="stop-opacity:1;stop-color:#60a5fa"
         offset="0"
         id="stop63" />
      <stop
         style="stop-opacity:1;stop-color:#60a5fa"
         offset="0.385028"
         id="stop64" />
      <stop
         style="stop-opacity:1;stop-color:#2563eb"
         offset="1"
         id="stop65" />
    </linearGradient>
    <clipPath
       clipPathUnits="userSpaceOnUse"
       id="clipPath65">
      <path
         d="m 2128.41,2236.57 c -9.97,3.57 -46.39,-9.44 -73.11,-29.16 -12.38,-9.13 -24.02,-20.67 -16.55,-37 1.63,-3.56 3.71,-6.15 4.39,-7 2.39,0.74 74.9,55.16 75.49,55.67 10.66,9.02 14.17,14.79 10.45,17.14 l -0.67,0.35"
         id="path65" />
    </clipPath>
    <linearGradient
       x1="0"
       y1="0"
       x2="1"
       y2="0"
       gradientUnits="userSpaceOnUse"
       gradientTransform="matrix(-684.255,-461.277,-461.277,684.255,2676,2203.66)"
       spreadMethod="pad"
       id="linearGradient68">
      <stop
         style="stop-opacity:1;stop-color:#60a5fa"
         offset="0"
         id="stop66" />
      <stop
         style="stop-opacity:1;stop-color:#60a5fa"
         offset="0.385028"
         id="stop67" />
      <stop
         style="stop-opacity:1;stop-color:#2563eb"
         offset="1"
         id="stop68" />
    </linearGradient>
    <clipPath
       clipPathUnits="userSpaceOnUse"
       id="clipPath68">
      <path
         d="m 2112.21,1866.32 c -35.2,19.38 -72.63,-26.75 -61.24,-61.47 9.01,-27.46 47.71,-51.28 52.1,-53.91 l 0.04,0.07 c 45.55,93.83 20.93,108.34 9.1,115.31"
         id="path68" />
    </clipPath>
    <linearGradient
       x1="0"
       y1="0"
       x2="1"
       y2="0"
       gradientUnits="userSpaceOnUse"
       gradientTransform="matrix(-684.255,-461.277,-461.277,684.255,2741.29,2106.8)"
       spreadMethod="pad"
       id="linearGradient71">
      <stop
         style="stop-opacity:1;stop-color:#60a5fa"
         offset="0"
         id="stop69" />
      <stop
         style="stop-opacity:1;stop-color:#60a5fa"
         offset="0.385028"
         id="stop70" />
      <stop
         style="stop-opacity:1;stop-color:#2563eb"
         offset="1"
         id="stop71" />
    </linearGradient>
    <clipPath
       clipPathUnits="userSpaceOnUse"
       id="clipPath71">
      <path
         d="m 2171.51,1805.07 c -72.45,-109.06 -22.42,-159.25 17.32,-150.29 15.85,3.57 95.13,50.18 -17.32,150.29"
         id="path71" />
    </clipPath>
    <linearGradient
       x1="0"
       y1="0"
       x2="1"
       y2="0"
       gradientUnits="userSpaceOnUse"
       gradientTransform="matrix(-684.255,-461.277,-461.277,684.255,2721.54,2136.1)"
       spreadMethod="pad"
       id="linearGradient74">
      <stop
         style="stop-opacity:1;stop-color:#60a5fa"
         offset="0"
         id="stop72" />
      <stop
         style="stop-opacity:1;stop-color:#60a5fa"
         offset="0.385028"
         id="stop73" />
      <stop
         style="stop-opacity:1;stop-color:#2563eb"
         offset="1"
         id="stop74" />
    </linearGradient>
    <clipPath
       clipPathUnits="userSpaceOnUse"
       id="clipPath74">
      <path
         d="m 2036.45,1749.14 c -1.92,1.12 -4.21,2.45 -7.21,4 -1.14,-0.83 -19.42,-57.52 -12.26,-101.14 1.79,-10.85 12.74,-34.59 35.23,-38.77 36.64,-6.8 65.77,45.96 37.74,88.72 -10.58,16.15 -30.09,33.35 -53.5,47.19"
         id="path74" />
    </clipPath>
  </defs>
  <sodipodi:namedview
     id="namedview1"
     pagecolor="#ffffff"
     bordercolor="#000000"
     borderopacity="0.25"
     inkscape:showpageshadow="2"
     inkscape:pageopacity="0.0"
     inkscape:pagecheckerboard="0"
     inkscape:deskcolor="#d1d1d1">
    <inkscape:page
       x="0"
       y="0"
       inkscape:label="1"
       id="page1"
       width="772.50665"
       height="516.23999"
       margin="0"
       bleed="0" />
  </sodipodi:namedview>
  <g
     id="g1"
     inkscape:groupmode="layer"
     inkscape:label="1">
    <g
       id="group-R5">
      <path
         id="path3"
         d="m 2273.64,2191.98 c -85.94,-9.94 -111.35,-45.9 -91.87,-60.83 10.33,-7.92 34.15,-7.42 56.12,7.12 4.51,2.98 18.24,12.08 35.75,53.71"
         style="fill:url(#linearGradient5);fill-opacity:1;fill-rule:nonzero;stroke:none"
         transform="matrix(0.13333333,0,0,-0.13333333,0,516.24)"
         clip-path="url(#clipPath5)" />
      <path
         id="path6"
         d="m 2394.6,2215.39 c -18.57,10.29 -93.46,7.98 -99.73,-61.43 2.55,-1.02 63.91,15.35 86.26,27.04 10.84,5.66 24.05,18.19 19.49,28.27 -1.53,3.36 -4.45,5.15 -6.02,6.12"
         style="fill:url(#linearGradient8);fill-opacity:1;fill-rule:nonzero;stroke:none"
         transform="matrix(0.13333333,0,0,-0.13333333,0,516.24)"
         clip-path="url(#clipPath8)" />
      <path
         id="path9"
         d="m 2336.13,2248 c -13.54,6.15 -78.91,9.79 -123.68,-47.94 30.6,-0.48 142.86,26.63 126.34,45.92 -0.01,0.01 -1.07,1.23 -2.66,2.02"
         style="fill:url(#linearGradient11);fill-opacity:1;fill-rule:nonzero;stroke:none"
         transform="matrix(0.13333333,0,0,-0.13333333,0,516.24)"
         clip-path="url(#clipPath11)" />
      <path
         id="path12"
         d="m 1978.72,1868.59 c -27.89,12.91 -67.53,-26.49 -48.45,-114.32 7.88,5.86 47.67,36.12 56.56,57.08 13.26,31.3 2.42,51.38 -8.11,57.24"
         style="fill:url(#linearGradient14);fill-opacity:1;fill-rule:nonzero;stroke:none"
         transform="matrix(0.13333333,0,0,-0.13333333,0,516.24)"
         clip-path="url(#clipPath14)" />
      <path
         id="path15"
         d="m 1991.29,1754.15 c -93.24,-42.18 -77.42,-123.99 -47.58,-136.17 17.97,-7.34 36.15,12.21 41.86,28.51 9.43,27.03 8.32,73.47 5.72,107.66"
         style="fill:url(#linearGradient17);fill-opacity:1;fill-rule:nonzero;stroke:none"
         transform="matrix(0.13333333,0,0,-0.13333333,0,516.24)"
         clip-path="url(#clipPath17)" />
      <path
         id="path18"
         d="m 1895.62,1807.52 c -71.26,-76.12 -49.01,-149.14 -23.3,-147.61 0.51,0.03 50.52,4.67 23.3,147.61"
         style="fill:url(#linearGradient20);fill-opacity:1;fill-rule:nonzero;stroke:none"
         transform="matrix(0.13333333,0,0,-0.13333333,0,516.24)"
         clip-path="url(#clipPath20)" />
      <path
         id="path21"
         d="m 1995.03,2104.76 c -17.85,5.03 -58.7,-20.33 -58.99,-20.62 -0.18,-0.2 -11.66,-31.98 -4.29,-45.35 11.2,-20.31 59.57,20.08 67.37,49.88 3.03,11.53 -1.85,15.09 -4.09,16.09"
         style="fill:url(#linearGradient23);fill-opacity:1;fill-rule:nonzero;stroke:none"
         transform="matrix(0.13333333,0,0,-0.13333333,0,516.24)"
         clip-path="url(#clipPath23)" />
      <path
         id="path24"
         d="m 2008.85,2177.03 c -17.61,5.21 -86.17,-53.48 -78.89,-67.52 2.78,-5.37 13.79,-1.09 73.59,28.61 10.79,36.11 7.99,37.53 5.3,38.91"
         style="fill:url(#linearGradient26);fill-opacity:1;fill-rule:nonzero;stroke:none"
         transform="matrix(0.13333333,0,0,-0.13333333,0,516.24)"
         clip-path="url(#clipPath26)" />
      <path
         id="path27"
         d="m 1903.12,2074.89 c -11.23,2.12 -31.75,-22.36 -41.04,-35.6 -17.76,-25.33 -24.59,-46.71 -20.93,-52.75 5.15,-8.5 54.45,24.78 54.83,25.31 0.39,0.54 16.59,60.4 7.14,63.04"
         style="fill:url(#linearGradient29);fill-opacity:1;fill-rule:nonzero;stroke:none"
         transform="matrix(0.13333333,0,0,-0.13333333,0,516.24)"
         clip-path="url(#clipPath29)" />
      <path
         id="path30"
         d="m 2246.77,1964.12 c -39.64,20.94 -80.94,-20.24 -68.13,-55.3 9.55,-26.12 44.25,-32.18 103.14,-18.02 -2.05,9.86 -13.39,59.75 -35.01,73.32"
         style="fill:url(#linearGradient32);fill-opacity:1;fill-rule:nonzero;stroke:none"
         transform="matrix(0.13333333,0,0,-0.13333333,0,516.24)"
         clip-path="url(#clipPath32)" />
      <path
         id="path33"
         d="m 2402.12,1956.98 c -27.93,14.83 -73.1,14.42 -97.52,12.85 11.25,-114.81 82.6,-117.01 109.42,-82.27 18.81,24.35 9.05,57.31 -11.9,69.42"
         style="fill:url(#linearGradient35);fill-opacity:1;fill-rule:nonzero;stroke:none"
         transform="matrix(0.13333333,0,0,-0.13333333,0,516.24)"
         clip-path="url(#clipPath35)" />
      <path
         id="path36"
         d="m 2322.46,1840.25 c -34.87,21.31 -103.95,-1.68 -111.72,-4.37 51.97,-150.15 120.26,-79.63 128.76,-63.8 11.25,20.95 9.02,51.09 -17.04,68.17"
         style="fill:url(#linearGradient38);fill-opacity:1;fill-rule:nonzero;stroke:none"
         transform="matrix(0.13333333,0,0,-0.13333333,0,516.24)"
         clip-path="url(#clipPath38)" />
      <path
         id="path39"
         d="m 2337.81,2077.98 c -81.16,47.82 -119.54,0.18 -113.42,-25.81 4.28,-18.16 26.05,-25.08 43.77,-21.07 23.85,5.39 56.78,34.51 69.84,46.77 l -0.19,0.11"
         style="fill:url(#linearGradient41);fill-opacity:1;fill-rule:nonzero;stroke:none"
         transform="matrix(0.13333333,0,0,-0.13333333,0,516.24)"
         clip-path="url(#clipPath41)" />
      <path
         id="path42"
         d="m 2434.8,2065.2 c -50.71,29.29 -107.33,-40.48 -118.16,-54.77 24.72,-9.82 73.06,-24.53 97.45,-17.28 30.99,9.2 43.11,37.17 34.6,56.5 -3.51,7.99 -9.49,12.86 -13.89,15.55"
         style="fill:url(#linearGradient44);fill-opacity:1;fill-rule:nonzero;stroke:none"
         transform="matrix(0.13333333,0,0,-0.13333333,0,516.24)"
         clip-path="url(#clipPath44)" />
      <path
         id="path45"
         d="m 2426.82,2156.89 c -33.62,19.14 -88.41,-9.35 -118.08,-28.03 85.47,-56.15 134.77,-14.04 130.42,11.6 -1.11,6.57 -5.38,12.24 -12.34,16.43"
         style="fill:url(#linearGradient47);fill-opacity:1;fill-rule:nonzero;stroke:none"
         transform="matrix(0.13333333,0,0,-0.13333333,0,516.24)"
         clip-path="url(#clipPath47)" />
      <path
         id="path48"
         d="m 1928.57,1968.83 c -23.46,10.63 -55.96,-43.85 -70.93,-80.7 l -0.03,-0.07 c 69.82,-23.75 85.46,58.27 76.74,74.82 -1.79,3.39 -4.14,5.11 -5.78,5.95"
         style="fill:url(#linearGradient50);fill-opacity:1;fill-rule:nonzero;stroke:none"
         transform="matrix(0.13333333,0,0,-0.13333333,0,516.24)"
         clip-path="url(#clipPath50)" />
      <path
         id="path51"
         d="m 1874.75,1839.39 c -65.51,32.64 -73.39,-63.71 -65.4,-86.13 13.31,-37.34 38.44,15.53 49.18,38.11 0.12,0.26 20.46,43.38 21.28,45.13 -2.23,1.41 -4.28,2.49 -5.06,2.89"
         style="fill:url(#linearGradient53);fill-opacity:1;fill-rule:nonzero;stroke:none"
         transform="matrix(0.13333333,0,0,-0.13333333,0,516.24)"
         clip-path="url(#clipPath53)" />
      <path
         id="path54"
         d="m 1878.75,1968.69 c -15.77,0.61 -38.06,-3.7 -54.6,-27.65 -20.46,-29.62 -29.3,-71.83 -20.95,-81.72 5.08,-6.02 13.9,-0.04 26.21,17.77 4.55,6.58 4.55,6.58 49.34,91.6"
         style="fill:url(#linearGradient56);fill-opacity:1;fill-rule:nonzero;stroke:none"
         transform="matrix(0.13333333,0,0,-0.13333333,0,516.24)"
         clip-path="url(#clipPath56)" />
      <path
         id="path57"
         d="m 2118.81,2200.31 c -50.13,-30.49 -74.76,-63.54 -51.67,-69.35 20.06,-5.05 81.42,26.79 67.27,53.72 -3.85,7.34 -11.62,13.28 -15.6,15.63"
         style="fill:url(#linearGradient59);fill-opacity:1;fill-rule:nonzero;stroke:none"
         transform="matrix(0.13333333,0,0,-0.13333333,0,516.24)"
         clip-path="url(#clipPath59)" />
      <path
         id="path60"
         d="m 2246.87,2257.41 c -19.02,8.25 -98.44,-13.88 -91.58,-36.98 2.84,-9.51 19.72,-17.36 23.07,-18.84 1.65,0.69 58.47,37.59 65.93,43.67 1.73,1.4 9.93,8.58 2.58,12.15"
         style="fill:url(#linearGradient62);fill-opacity:1;fill-rule:nonzero;stroke:none"
         transform="matrix(0.13333333,0,0,-0.13333333,0,516.24)"
         clip-path="url(#clipPath62)" />
      <path
         id="path63"
         d="m 2128.41,2236.57 c -9.97,3.57 -46.39,-9.44 -73.11,-29.16 -12.38,-9.13 -24.02,-20.67 -16.55,-37 1.63,-3.56 3.71,-6.15 4.39,-7 2.39,0.74 74.9,55.16 75.49,55.67 10.66,9.02 14.17,14.79 10.45,17.14 l -0.67,0.35"
         style="fill:url(#linearGradient65);fill-opacity:1;fill-rule:nonzero;stroke:none"
         transform="matrix(0.13333333,0,0,-0.13333333,0,516.24)"
         clip-path="url(#clipPath65)" />
      <path
         id="path66"
         d="m 2112.21,1866.32 c -35.2,19.38 -72.63,-26.75 -61.24,-61.47 9.01,-27.46 47.71,-51.28 52.1,-53.91 l 0.04,0.07 c 45.55,93.83 20.93,108.34 9.1,115.31"
         style="fill:url(#linearGradient68);fill-opacity:1;fill-rule:nonzero;stroke:none"
         transform="matrix(0.13333333,0,0,-0.13333333,0,516.24)"
         clip-path="url(#clipPath68)" />
      <path
         id="path69"
         d="m 2171.51,1805.07 c -72.45,-109.06 -22.42,-159.25 17.32,-150.29 15.85,3.57 95.13,50.18 -17.32,150.29"
         style="fill:url(#linearGradient71);fill-opacity:1;fill-rule:nonzero;stroke:none"
         transform="matrix(0.13333333,0,0,-0.13333333,0,516.24)"
         clip-path="url(#clipPath71)" />
      <path
         id="path72"
         d="m 2036.45,1749.14 c -1.92,1.12 -4.21,2.45 -7.21,4 -1.14,-0.83 -19.42,-57.52 -12.26,-101.14 1.79,-10.85 12.74,-34.59 35.23,-38.77 36.64,-6.8 65.77,45.96 37.74,88.72 -10.58,16.15 -30.09,33.35 -53.5,47.19"
         style="fill:url(#linearGradient74);fill-opacity:1;fill-rule:nonzero;stroke:none"
         transform="matrix(0.13333333,0,0,-0.13333333,0,516.24)"
         clip-path="url(#clipPath74)" />
    </g>
  </g>
</svg>
